<svg width="44" height="44" viewBox="0 0 44 44" fill="none" xmlns="http://www.w3.org/2000/svg">
<path d="M0.125977 22.063H33.0314C39.0891 22.063 43.9999 26.9737 43.9999 33.0315C43.9999 39.0892 39.0891 44 33.0314 44H0.125977V22.063Z" fill="#10B5F1" fill-opacity="0.46"/>
<path d="M0.125977 22.063H33.0314C39.0891 22.063 43.9999 26.9737 43.9999 33.0315C43.9999 39.0892 39.0891 44 33.0314 44H0.125977V22.063Z" fill="#10B5F1" fill-opacity="0.46"/>
<path d="M0 43.8739L0 10.9685C0 4.91074 4.91076 -2.28882e-05 10.9685 -2.28882e-05C17.0262 -2.28882e-05 21.937 4.91073 21.937 10.9685L21.937 43.8739H0Z" fill="#10B5F1" fill-opacity="0.46"/>
<path d="M0 43.8739L0 10.9685C0 4.91074 4.91076 -2.28882e-05 10.9685 -2.28882e-05C17.0262 -2.28882e-05 21.937 4.91073 21.937 10.9685L21.937 43.8739H0Z" fill="#10B5F1" fill-opacity="0.46"/>
<path d="M0.125977 22.063H33.0314C39.0891 22.063 43.9999 26.9737 43.9999 33.0315C43.9999 39.0892 39.0891 44 33.0314 44H0.125977V22.063Z" fill="#10B5F1" fill-opacity="0.46"/>
<path d="M0.125977 22.063H33.0314C39.0891 22.063 43.9999 26.9737 43.9999 33.0315C43.9999 39.0892 39.0891 44 33.0314 44H0.125977V22.063Z" fill="#10B5F1" fill-opacity="0.46"/>
<path d="M0 43.8739L0 10.9685C0 4.91074 4.91076 -2.28882e-05 10.9685 -2.28882e-05C17.0262 -2.28882e-05 21.937 4.91073 21.937 10.9685L21.937 43.8739H0Z" fill="#10B5F1" fill-opacity="0.46"/>
<path d="M0 43.8739L0 10.9685C0 4.91074 4.91076 -2.28882e-05 10.9685 -2.28882e-05C17.0262 -2.28882e-05 21.937 4.91073 21.937 10.9685L21.937 43.8739H0Z" fill="#10B5F1" fill-opacity="0.46"/>
<path fill-rule="evenodd" clip-rule="evenodd" d="M21.937 22.1891V44H0.125977V22.1891H21.937Z" fill="#D9D9D9"/>
<path fill-rule="evenodd" clip-rule="evenodd" d="M21.937 22.1891V44H0.125977V22.1891H21.937Z" fill="white"/>
<g clip-path="url(#clip0_99_3051)">
<path fill-rule="evenodd" clip-rule="evenodd" d="M8.99774 28.0568C8.99774 27.675 9.14938 27.3089 9.41931 27.039C9.68925 26.7691 10.0553 26.6174 10.4371 26.6174H11.8764C12.2582 26.6174 12.6243 26.7691 12.8942 27.039C13.1641 27.3089 13.3158 27.675 13.3158 28.0568V30.9355H16.1945C16.5762 30.9355 16.9423 31.0871 17.2123 31.3571C17.4822 31.627 17.6338 31.9931 17.6338 32.3748V33.8142C17.6338 34.1959 17.4822 34.562 17.2123 34.832C16.9423 35.1019 16.5762 35.2535 16.1945 35.2535H13.3158V38.1322C13.3158 38.514 13.1641 38.8801 12.8942 39.15C12.6243 39.4199 12.2582 39.5716 11.8764 39.5716H10.4371C10.0553 39.5716 9.68925 39.4199 9.41931 39.15C9.14938 38.8801 8.99774 38.514 8.99774 38.1322V35.2535H6.11904C5.7373 35.2535 5.37119 35.1019 5.10126 34.832C4.83133 34.562 4.67969 34.1959 4.67969 33.8142V32.3748C4.67969 31.9931 4.83133 31.627 5.10126 31.3571C5.37119 31.0871 5.7373 30.9355 6.11904 30.9355H8.99774V28.0568Z" fill="#10B5F1" fill-opacity="0.46"/>
</g>
<defs>
<clipPath id="clip0_99_3051">
<rect width="15.6332" height="15.6332" fill="white" transform="translate(3.15137 25.2148)"/>
</clipPath>
</defs>
</svg>
